G04 Generated by Ultiboard 14.1 *
%FSLAX24Y24*%
%MOIN*%

%ADD10C,0.0001*%
%ADD11C,0.0001*%
%ADD12C,0.0050*%


G04 ColorRGB 00FFFF for the following layer *
%LNBoard Outline*%
%LPD*%
G54D10*
G54D11*
X4299Y6199D02*
X42901Y6199D01*
X42901Y38500D01*
X4299Y38500D01*
X4299Y6199D01*
G54D12*
X4199Y6099D02*
X4199Y9350D01*
X4199Y6099D02*
X8079Y6099D01*
X43001Y6099D02*
X39121Y6099D01*
X43001Y6099D02*
X43001Y9350D01*
X43001Y38600D02*
X43001Y35350D01*
X43001Y38600D02*
X39121Y38600D01*
X4199Y38600D02*
X8079Y38600D01*
X4199Y38600D02*
X4199Y35350D01*
X2230Y6099D02*
X-1707Y6099D01*
X262Y4131D02*
X262Y8068D01*
X-1214Y6099D02*
G75*
D01*
G02X-1214Y6099I1476J0*
G01*
X44969Y6099D02*
X48906Y6099D01*
X46938Y4131D02*
X46938Y8068D01*
X45462Y6099D02*
G75*
D01*
G02X45462Y6099I1476J0*
G01*
X46446Y6099D02*
G75*
D01*
G02X46446Y6099I492J0*
G01*
X2230Y38600D02*
X-1707Y38600D01*
X262Y36632D02*
X262Y40569D01*
X-1214Y38600D02*
G75*
D01*
G02X-1214Y38600I1476J0*
G01*
X-722Y38600D02*
G75*
D01*
G02X-722Y38600I984J0*
G01*
X-230Y38600D02*
G75*
D01*
G02X-230Y38600I492J0*
G01*

M02*
