G04 Generated by Ultiboard 14.1 *
%FSLAX24Y24*%
%MOIN*%

%ADD10C,0.0001*%
%ADD11C,0.0350*%
%ADD12C,0.0392*%
%ADD13C,0.0400*%
%ADD14C,0.0354*%
%ADD15C,0.1000*%


G04 ColorRGB 000000 for the following layer *
%LNDrill-Copper Top-Copper Bottom*%
%LPD*%
G54D11*
X26203Y29403D03*
X27203Y29403D03*
X29203Y29403D03*
X28203Y29403D03*
X18600Y29600D03*
X11800Y29400D03*
X15200Y29600D03*
X33600Y23200D03*
X37200Y12800D03*
X37200Y13800D03*
X37200Y14800D03*
X9000Y13200D03*
X9000Y14200D03*
X9000Y12200D03*
X9000Y18800D03*
X9000Y19800D03*
X9000Y17800D03*
G54D12*
X25203Y29403D03*
X18600Y28600D03*
X11800Y28400D03*
X15200Y28600D03*
X33600Y24200D03*
X37200Y11800D03*
X9000Y15200D03*
X9000Y20800D03*
G54D13*
X23575Y24300D03*
X23575Y23300D03*
X23575Y22300D03*
X23575Y21300D03*
X23575Y20300D03*
X23575Y19300D03*
X23575Y18300D03*
X23575Y17300D03*
X23575Y14300D03*
X23575Y12300D03*
X23575Y11300D03*
X26425Y24300D03*
X26425Y23300D03*
X26425Y18300D03*
X26425Y17300D03*
X26425Y16300D03*
X26425Y15300D03*
X26425Y14300D03*
X26425Y13300D03*
X26425Y12300D03*
X26425Y11300D03*
X23575Y16300D03*
X23575Y15300D03*
X23575Y13300D03*
X26425Y22300D03*
X26425Y21300D03*
X26425Y20300D03*
X26425Y19300D03*
G54D14*
X18912Y14200D03*
X13400Y14200D03*
X18912Y12600D03*
X13400Y12600D03*
X18912Y18200D03*
X13400Y18200D03*
X18912Y19800D03*
X13400Y19800D03*
X18912Y21600D03*
X13400Y21600D03*
X18912Y16200D03*
X13400Y16200D03*
X34912Y12000D03*
X29400Y12000D03*
X34912Y10600D03*
X29400Y10600D03*
X34912Y13800D03*
X29400Y13800D03*
X34712Y15600D03*
X29200Y15600D03*
X35200Y32112D03*
X35200Y26600D03*
X36200Y24312D03*
X36200Y18800D03*
X18912Y23400D03*
X13400Y23400D03*
X18912Y10800D03*
X13400Y10800D03*
G54D15*
X39800Y35500D03*
X40200Y8800D03*
X7100Y9000D03*
X7000Y36200D03*

M02*
